<svg xmlns="http://www.w3.org/2000/svg" xmlns:xlink="http://www.w3.org/1999/xlink" viewBox="0 0 640 640" width="28" height="28"><defs><path d="M0 0h640v640H0V0z" id="a"/><path d="M603.28 69.22l1.61.17 1.6.22 1.57.29 1.55.35 1.53.41 1.5.47 1.48.52 1.45.58 1.42.64 1.39.69 1.36.73 1.33.79 1.29.84 1.26.89 1.23.93 1.18.98 1.15 1.02 1.1 1.07 1.07 1.1 1.02 1.15.98 1.18.93 1.23.89 1.26.84 1.29.79 1.33.74 1.36.68 1.39.64 1.42.58 1.45.52 1.48.47 1.5.41 1.53.35 1.55.29 1.57.22 1.6.17 1.61.1 1.63.03 1.65v80l-.03 1.65-.1 1.63-.17 1.62-.22 1.59-.29 1.57-.35 1.55-.41 1.53-.47 1.5-.52 1.48-.58 1.45-.64 1.42-.68 1.39-.74 1.36-.79 1.33-.84 1.3-.89 1.25-.93 1.23-.98 1.18-1.02 1.15-1.07 1.11-1.1 1.06-1.15 1.02-1.18.98-1.23.93-1.26.89-1.29.84-1.33.79-1.36.74-1.39.68-1.42.64-1.45.58-1.48.52-1.5.47-1.53.41-1.55.35-1.57.29-1.6.22-1.61.17-1.63.1-1.65.03H40l-1.65-.03-1.63-.1-1.61-.17-1.6-.22-1.57-.29-1.55-.35-1.53-.41-1.5-.47-1.48-.52-1.45-.58-1.42-.64-1.39-.68-1.36-.74-1.33-.79-1.29-.84-1.26-.89-1.23-.93-1.18-.98-1.15-1.02-1.1-1.06-1.07-1.11-1.02-1.15-.98-1.18-.93-1.23-.89-1.25-.84-1.3-.79-1.33-.74-1.36-.68-1.39-.64-1.42-.58-1.45-.52-1.48-.47-1.5-.41-1.53-.35-1.55-.29-1.57-.22-1.59-.17-1.62-.1-1.63-.03-1.65v-80l.03-1.65.1-1.63.17-1.61.22-1.6.29-1.57.35-1.55.41-1.53.47-1.5.52-1.48.58-1.45.64-1.42.68-1.39.74-1.36.79-1.33.84-1.29.89-1.26.93-1.23.98-1.18 1.02-1.15 1.07-1.1 1.1-1.07 1.15-1.02 1.18-.98 1.23-.93 1.26-.89 1.29-.84 1.33-.79 1.36-.73 1.39-.69 1.42-.64 1.45-.58 1.48-.52 1.5-.47 1.53-.41 1.55-.35 1.57-.29 1.6-.22 1.61-.17 1.63-.1 1.65-.03h560l1.65.03 1.63.1zm-145.94 49.99l-1.3.14-1.29.2-1.27.25-1.25.31-1.23.35-1.2.41-1.19.46-1.15.5-1.14.55-1.1.6-1.08.64-1.04.68-1.02.73-.98.76-.95.81-.92.84-.88.88-.84.92-.81.95-.76.98-.73 1.02-.68 1.04-.64 1.08-.6 1.11-.55 1.13-.5 1.16-.46 1.18-.41 1.2-.35 1.23-.31 1.25-.25 1.27-.2 1.29-.14 1.3-.09 1.32-.03 1.34.03 1.34.09 1.32.14 1.3.2 1.29.25 1.27.31 1.25.35 1.23.41 1.2.46 1.19.5 1.15.55 1.14.6 1.1.64 1.08.68 1.04.73 1.02.76.98.81.95.84.92.88.88.92.84.95.81.98.76 1.02.73 1.04.68 1.08.64 1.1.6 1.14.55 1.15.5 1.19.46 1.2.41 1.23.36 1.25.3 1.27.25 1.29.2 1.3.14 1.32.09 1.34.03 1.34-.03 1.32-.09 1.3-.14 1.29-.2 1.27-.25 1.25-.3 1.23-.36 1.2-.41 1.19-.46 1.15-.5 1.14-.55 1.1-.6 1.08-.64 1.04-.68 1.02-.73.98-.76.95-.81.92-.84.88-.88.84-.92.81-.95.76-.98.73-1.02.68-1.04.64-1.08.6-1.1.55-1.14.5-1.15.46-1.19.41-1.2.35-1.23.31-1.25.25-1.27.2-1.29.14-1.3.09-1.32.03-1.34-.03-1.34-.09-1.32-.14-1.3-.2-1.29-.25-1.27-.31-1.25-.35-1.23-.41-1.2-.46-1.18-.5-1.16-.55-1.13-.6-1.11-.64-1.08-.68-1.04-.73-1.02-.76-.98-.81-.95-.84-.92-.88-.88-.92-.84-.95-.81-.98-.76-1.02-.73-1.04-.68-1.08-.64-1.1-.6-1.14-.55-1.15-.5-1.19-.46-1.2-.41-1.23-.35-1.25-.31-1.27-.25-1.29-.2-1.3-.14-1.32-.09-1.34-.03-1.34.03-1.32.09zm80 0l-1.3.14-1.29.2-1.27.25-1.25.31-1.23.35-1.2.41-1.19.46-1.15.5-1.14.55-1.1.6-1.08.64-1.04.68-1.02.73-.98.76-.95.81-.92.84-.88.88-.84.92-.81.95-.76.98-.73 1.02-.68 1.04-.64 1.08-.6 1.11-.55 1.13-.5 1.16-.46 1.18-.41 1.2-.35 1.23-.31 1.25-.25 1.27-.2 1.29-.14 1.3-.09 1.32-.03 1.34.03 1.34.09 1.32.14 1.3.2 1.29.25 1.27.31 1.25.35 1.23.41 1.2.46 1.19.5 1.15.55 1.14.6 1.1.64 1.08.68 1.04.73 1.02.76.98.81.95.84.92.88.88.92.84.95.81.98.76 1.02.73 1.04.68 1.08.64 1.1.6 1.14.55 1.15.5 1.19.46 1.2.41 1.23.36 1.25.3 1.27.25 1.29.2 1.3.14 1.32.09 1.34.03 1.34-.03 1.32-.09 1.3-.14 1.29-.2 1.27-.25 1.25-.3 1.23-.36 1.2-.41 1.19-.46 1.15-.5 1.14-.55 1.1-.6 1.08-.64 1.04-.68 1.02-.73.98-.76.95-.81.92-.84.88-.88.84-.92.81-.95.76-.98.73-1.02.68-1.04.64-1.08.6-1.1.55-1.14.5-1.15.46-1.19.41-1.2.35-1.23.31-1.25.25-1.27.2-1.29.14-1.3.09-1.32.03-1.34-.03-1.34-.09-1.32-.14-1.3-.2-1.29-.25-1.27-.31-1.25-.35-1.23-.41-1.2-.46-1.18-.5-1.16-.55-1.13-.6-1.11-.64-1.08-.68-1.04-.73-1.02-.76-.98-.81-.95-.84-.92-.88-.88-.92-.84-.95-.81-.98-.76-1.02-.73-1.04-.68-1.08-.64-1.1-.6-1.14-.55-1.15-.5-1.19-.46-1.2-.41-1.23-.35-1.25-.31-1.27-.25-1.29-.2-1.3-.14-1.32-.09-1.34-.03-1.34.03-1.32.09z" id="b"/><path d="M603.28 240.13l1.61.17 1.6.22 1.57.29 1.55.35 1.53.41 1.5.47 1.48.52 1.45.58 1.42.64 1.39.68 1.36.74 1.33.79 1.29.84 1.26.89 1.23.93 1.18.98 1.15 1.02 1.1 1.07 1.07 1.1 1.02 1.15.98 1.18.93 1.23.89 1.26.84 1.29.79 1.33.74 1.36.68 1.39.64 1.42.58 1.45.52 1.48.47 1.5.41 1.53.35 1.55.29 1.57.22 1.6.17 1.61.1 1.63.03 1.65v80l-.03 1.65-.1 1.63-.17 1.61-.22 1.6-.29 1.57-.35 1.55-.41 1.53-.47 1.5-.52 1.48-.58 1.45-.64 1.42-.68 1.39-.74 1.36-.79 1.33-.84 1.29-.89 1.26-.93 1.23-.98 1.18-1.02 1.15-1.07 1.1-1.1 1.07-1.15 1.02-1.18.98-1.23.93-1.26.89-1.29.84-1.33.79-1.36.74-1.39.68-1.42.64-1.45.58-1.48.52-1.5.47-1.53.41-1.55.35-1.57.29-1.6.22-1.61.17-1.63.1-1.65.03H40l-1.65-.03-1.63-.1-1.61-.17-1.6-.22-1.57-.29-1.55-.35-1.53-.41-1.5-.47-1.48-.52-1.45-.58-1.42-.64-1.39-.68-1.36-.74-1.33-.79-1.29-.84-1.26-.89-1.23-.93-1.18-.98-1.15-1.02-1.1-1.07-1.07-1.1-1.02-1.15-.98-1.18-.93-1.23-.89-1.26-.84-1.29-.79-1.33-.74-1.36-.68-1.39-.64-1.42-.58-1.45-.52-1.48-.47-1.5-.41-1.53-.35-1.55-.29-1.57-.22-1.6-.17-1.61-.1-1.63L0 360v-80l.03-1.65.1-1.63.17-1.61.22-1.6.29-1.57.35-1.55.41-1.53.47-1.5.52-1.48.58-1.45.64-1.42.68-1.39.74-1.36.79-1.33.84-1.29.89-1.26.93-1.23.98-1.18 1.02-1.15 1.07-1.1 1.1-1.07 1.15-1.02 1.18-.98 1.23-.93 1.26-.89 1.29-.84 1.33-.79 1.36-.74 1.39-.68 1.42-.64 1.45-.58 1.48-.52 1.5-.47 1.53-.41 1.55-.35 1.57-.29 1.6-.22 1.61-.17 1.63-.1L40 240h560l1.65.03 1.63.1zm-145.94 49.99l-1.3.14-1.29.2-1.27.25-1.25.31-1.23.35-1.2.41-1.19.46-1.15.5-1.14.55-1.1.6-1.08.64-1.04.68-1.02.73-.98.76-.95.81-.92.84-.88.88-.84.92-.81.95-.76.98-.73 1.02-.68 1.04-.64 1.08-.6 1.1-.55 1.14-.5 1.15-.46 1.19-.41 1.2-.35 1.23-.31 1.25-.25 1.27-.2 1.29-.14 1.3-.09 1.32L430 320l.03 1.34.09 1.32.14 1.3.2 1.29.25 1.27.31 1.25.35 1.23.41 1.2.46 1.19.5 1.15.55 1.14.6 1.1.64 1.08.68 1.04.73 1.02.76.98.81.95.84.92.88.88.92.84.95.81.98.76 1.02.73 1.04.68 1.08.64 1.1.6 1.14.55 1.15.5 1.19.46 1.2.41 1.23.35 1.25.31 1.27.25 1.29.2 1.3.14 1.32.09 1.34.03 1.34-.03 1.32-.09 1.3-.14 1.29-.2 1.27-.25 1.25-.31 1.23-.35 1.2-.41 1.19-.46 1.15-.5 1.14-.55 1.1-.6 1.08-.64 1.04-.68 1.02-.73.98-.76.95-.81.92-.84.88-.88.84-.92.81-.95.76-.98.73-1.02.68-1.04.64-1.08.6-1.1.55-1.14.5-1.15.46-1.19.41-1.2.35-1.23.31-1.25.25-1.27.2-1.29.14-1.3.09-1.32.03-1.34-.03-1.34-.09-1.32-.14-1.3-.2-1.29-.25-1.27-.31-1.25-.35-1.23-.41-1.2-.46-1.19-.5-1.15-.55-1.14-.6-1.1-.64-1.08-.68-1.04-.73-1.02-.76-.98-.81-.95-.84-.92-.88-.88-.92-.84-.95-.81-.98-.76-1.02-.73-1.04-.68-1.08-.64-1.1-.6-1.14-.55-1.15-.5-1.19-.46-1.2-.41-1.23-.35-1.25-.31-1.27-.25-1.29-.2-1.3-.14-1.32-.09L460 290l-1.34.03-1.32.09zm80 0l-1.3.14-1.29.2-1.27.25-1.25.31-1.23.35-1.2.41-1.19.46-1.15.5-1.14.55-1.1.6-1.08.64-1.04.68-1.02.73-.98.76-.95.81-.92.84-.88.88-.84.92-.81.95-.76.98-.73 1.02-.68 1.04-.64 1.08-.6 1.1-.55 1.14-.5 1.15-.46 1.19-.41 1.2-.35 1.23-.31 1.25-.25 1.27-.2 1.29-.14 1.3-.09 1.32L510 320l.03 1.34.09 1.32.14 1.3.2 1.29.25 1.27.31 1.25.35 1.23.41 1.2.46 1.19.5 1.15.55 1.14.6 1.1.64 1.08.68 1.04.73 1.02.76.98.81.95.84.92.88.88.92.84.95.81.98.76 1.02.73 1.04.68 1.08.64 1.1.6 1.14.55 1.15.5 1.19.46 1.2.41 1.23.35 1.25.31 1.27.25 1.29.2 1.3.14 1.32.09 1.34.03 1.34-.03 1.32-.09 1.3-.14 1.29-.2 1.27-.25 1.25-.31 1.23-.35 1.2-.41 1.19-.46 1.15-.5 1.14-.55 1.1-.6 1.08-.64 1.04-.68 1.02-.73.98-.76.95-.81.92-.84.88-.88.84-.92.81-.95.76-.98.73-1.02.68-1.04.64-1.08.6-1.1.55-1.14.5-1.15.46-1.19.41-1.2.35-1.23.31-1.25.25-1.27.2-1.29.14-1.3.09-1.32.03-1.34-.03-1.34-.09-1.32-.14-1.3-.2-1.29-.25-1.27-.31-1.25-.35-1.23-.41-1.2-.46-1.19-.5-1.15-.55-1.14-.6-1.1-.64-1.08-.68-1.04-.73-1.02-.76-.98-.81-.95-.84-.92-.88-.88-.92-.84-.95-.81-.98-.76-1.02-.73-1.04-.68-1.08-.64-1.1-.6-1.14-.55-1.15-.5-1.19-.46-1.2-.41-1.23-.35-1.25-.31-1.27-.25-1.29-.2-1.3-.14-1.32-.09L540 290l-1.34.03-1.32.09z" id="c"/><path d="M603.28 409.22l1.61.17 1.6.22 1.57.29 1.55.35 1.53.41 1.5.47 1.48.52 1.45.58 1.42.64 1.39.69 1.36.73 1.33.79 1.29.84 1.26.89 1.23.93 1.18.98 1.15 1.02 1.1 1.07 1.07 1.1 1.02 1.15.98 1.18.93 1.23.89 1.26.84 1.29.79 1.33.74 1.36.68 1.39.64 1.42.58 1.45.52 1.48.47 1.5.41 1.53.35 1.55.29 1.57.22 1.6.17 1.61.1 1.63.03 1.65v80l-.03 1.65-.1 1.63-.17 1.62-.22 1.59-.29 1.57-.35 1.55-.41 1.53-.47 1.5-.52 1.48-.58 1.45-.64 1.42-.68 1.39-.74 1.36-.79 1.33-.84 1.3-.89 1.25-.93 1.23-.98 1.18-1.02 1.15-1.07 1.11-1.1 1.06-1.15 1.02-1.18.98-1.23.93-1.26.89-1.29.84-1.33.79-1.36.74-1.39.68-1.42.64-1.45.58-1.48.52-1.5.47-1.53.41-1.55.35-1.57.29-1.6.22-1.61.17-1.63.1-1.65.03H40l-1.65-.03-1.63-.1-1.61-.17-1.6-.22-1.57-.29-1.55-.35-1.53-.41-1.5-.47-1.48-.52-1.45-.58-1.42-.64-1.39-.68-1.36-.74-1.33-.79-1.29-.84-1.26-.89-1.23-.93-1.18-.98-1.15-1.02-1.1-1.06-1.07-1.11-1.02-1.15-.98-1.18-.93-1.23-.89-1.25-.84-1.3-.79-1.33-.74-1.36-.68-1.39-.64-1.42-.58-1.45-.52-1.48-.47-1.5-.41-1.53-.35-1.55-.29-1.57-.22-1.59-.17-1.62-.1-1.63-.03-1.65v-80l.03-1.65.1-1.63.17-1.61.22-1.6.29-1.57.35-1.55.41-1.53.47-1.5.52-1.48.58-1.45.64-1.42.68-1.39.74-1.36.79-1.33.84-1.29.89-1.26.93-1.23.98-1.18 1.02-1.15 1.07-1.1 1.1-1.07 1.15-1.02 1.18-.98 1.23-.93 1.26-.89 1.29-.84 1.33-.79 1.36-.73 1.39-.69 1.42-.64 1.45-.58 1.48-.52 1.5-.47 1.53-.41 1.55-.35 1.57-.29 1.6-.22 1.61-.17 1.63-.1 1.65-.03h560l1.65.03 1.63.1zm-145.94 49.99l-1.3.14-1.29.2-1.27.25-1.25.31-1.23.35-1.2.41-1.19.46-1.15.5-1.14.55-1.1.6-1.08.64-1.04.68-1.02.73-.98.76-.95.81-.92.84-.88.88-.84.92-.81.95-.76.98-.73 1.02-.68 1.04-.64 1.08-.6 1.11-.55 1.13-.5 1.16-.46 1.18-.41 1.2-.35 1.23-.31 1.25-.25 1.27-.2 1.29-.14 1.3-.09 1.32-.03 1.34.03 1.34.09 1.32.14 1.3.2 1.29.25 1.27.31 1.25.35 1.23.41 1.2.46 1.19.5 1.15.55 1.14.6 1.1.64 1.08.68 1.04.73 1.02.76.98.81.95.84.92.88.88.92.84.95.81.98.76 1.02.73 1.04.68 1.08.64 1.1.6 1.14.55 1.15.5 1.19.46 1.2.41 1.23.36 1.25.3 1.27.25 1.29.2 1.3.14 1.32.09 1.34.03 1.34-.03 1.32-.09 1.3-.14 1.29-.2 1.27-.25 1.25-.3 1.23-.36 1.2-.41 1.19-.46 1.15-.5 1.14-.55 1.1-.6 1.08-.64 1.04-.68 1.02-.73.98-.76.95-.81.92-.84.88-.88.84-.92.81-.95.76-.98.73-1.02.68-1.04.64-1.08.6-1.1.55-1.14.5-1.15.46-1.19.41-1.2.35-1.23.31-1.25.25-1.27.2-1.29.14-1.3.09-1.32.03-1.34-.03-1.34-.09-1.32-.14-1.3-.2-1.29-.25-1.27-.31-1.25-.35-1.23-.41-1.2-.46-1.18-.5-1.16-.55-1.13-.6-1.11-.64-1.08-.68-1.04-.73-1.02-.76-.98-.81-.95-.84-.92-.88-.88-.92-.84-.95-.81-.98-.76-1.02-.73-1.04-.68-1.08-.64-1.1-.6-1.14-.55-1.15-.5-1.19-.46-1.2-.41-1.23-.35-1.25-.31-1.27-.25-1.29-.2-1.3-.14-1.32-.09-1.34-.03-1.34.03-1.32.09zm80 0l-1.3.14-1.29.2-1.27.25-1.25.31-1.23.35-1.2.41-1.19.46-1.15.5-1.14.55-1.1.6-1.08.64-1.04.68-1.02.73-.98.76-.95.81-.92.84-.88.88-.84.92-.81.95-.76.98-.73 1.02-.68 1.04-.64 1.08-.6 1.11-.55 1.13-.5 1.16-.46 1.18-.41 1.2-.35 1.23-.31 1.25-.25 1.27-.2 1.29-.14 1.3-.09 1.32-.03 1.34.03 1.34.09 1.32.14 1.3.2 1.29.25 1.27.31 1.25.35 1.23.41 1.2.46 1.19.5 1.15.55 1.14.6 1.1.64 1.08.68 1.04.73 1.02.76.98.81.95.84.92.88.88.92.84.95.81.98.76 1.02.73 1.04.68 1.08.64 1.1.6 1.14.55 1.15.5 1.19.46 1.2.41 1.23.36 1.25.3 1.27.25 1.29.2 1.3.14 1.32.09 1.34.03 1.34-.03 1.32-.09 1.3-.14 1.29-.2 1.27-.25 1.25-.3 1.23-.36 1.2-.41 1.19-.46 1.15-.5 1.14-.55 1.1-.6 1.08-.64 1.04-.68 1.02-.73.98-.76.95-.81.92-.84.88-.88.84-.92.81-.95.76-.98.73-1.02.68-1.04.64-1.08.6-1.1.55-1.14.5-1.15.46-1.19.41-1.2.35-1.23.31-1.25.25-1.27.2-1.29.14-1.3.09-1.32.03-1.34-.03-1.34-.09-1.32-.14-1.3-.2-1.29-.25-1.27-.31-1.25-.35-1.23-.41-1.2-.46-1.18-.5-1.16-.55-1.13-.6-1.11-.64-1.08-.68-1.04-.73-1.02-.76-.98-.81-.95-.84-.92-.88-.88-.92-.84-.95-.81-.98-.76-1.02-.73-1.04-.68-1.08-.64-1.1-.6-1.14-.55-1.15-.5-1.19-.46-1.2-.41-1.23-.35-1.25-.31-1.27-.25-1.29-.2-1.3-.14-1.32-.09-1.34-.03-1.34.03-1.32.09z" id="d"/></defs><use xlink:href="#a" fill="#2d2d30"/><use xlink:href="#a" fill-opacity="0" stroke="#000" stroke-opacity="0"/><use xlink:href="#b" fill="#c5c5c5"/><use xlink:href="#b" fill-opacity="0" stroke="#000" stroke-opacity="0"/><g><use xlink:href="#c" fill="#c5c5c5"/><use xlink:href="#c" fill-opacity="0" stroke="#000" stroke-opacity="0"/></g><g><use xlink:href="#d" fill="#c5c5c5"/><use xlink:href="#d" fill-opacity="0" stroke="#000" stroke-opacity="0"/></g></svg>