<?xml version="1.0" encoding="UTF-8" standalone="no"?>
<!DOCTYPE svg PUBLIC "-//W3C//DTD SVG 1.1//EN" "http://www.w3.org/Graphics/SVG/1.1/DTD/svg11.dtd">
<svg version="1.1" xmlns="http://www.w3.org/2000/svg" xmlns:xlink="http://www.w3.org/1999/xlink" preserveAspectRatio="xMidYMid meet" viewBox="0 0 640 640" width="28" height="28"><defs><path d="M0 0L640 0L640 640L0 640L0 0Z" id="i1FUmF1eEI"></path><path d="M603.28 69.22L604.89 69.39L606.49 69.61L608.06 69.9L609.61 70.25L611.14 70.66L612.64 71.13L614.12 71.65L615.57 72.23L616.99 72.87L618.38 73.56L619.74 74.29L621.07 75.08L622.36 75.92L623.62 76.81L624.85 77.74L626.03 78.72L627.18 79.74L628.28 80.81L629.35 81.91L630.37 83.06L631.35 84.24L632.28 85.47L633.17 86.73L634.01 88.02L634.8 89.35L635.54 90.71L636.22 92.1L636.86 93.52L637.44 94.97L637.96 96.45L638.43 97.95L638.84 99.48L639.19 101.03L639.48 102.6L639.7 104.2L639.87 105.81L639.97 107.44L640 109.09L640 189.09L639.97 190.74L639.87 192.37L639.7 193.99L639.48 195.58L639.19 197.15L638.84 198.7L638.43 200.23L637.96 201.73L637.44 203.21L636.86 204.66L636.22 206.08L635.54 207.47L634.8 208.83L634.01 210.16L633.17 211.46L632.28 212.71L631.35 213.94L630.37 215.12L629.35 216.27L628.28 217.38L627.18 218.44L626.03 219.46L624.85 220.44L623.62 221.37L622.36 222.26L621.07 223.1L619.74 223.89L618.38 224.63L616.99 225.31L615.57 225.95L614.12 226.53L612.64 227.05L611.14 227.52L609.61 227.93L608.06 228.28L606.49 228.57L604.89 228.79L603.28 228.96L601.65 229.06L600 229.09L40 229.09L38.35 229.06L36.72 228.96L35.11 228.79L33.51 228.57L31.94 228.28L30.39 227.93L28.86 227.52L27.36 227.05L25.88 226.53L24.43 225.95L23.01 225.31L21.62 224.63L20.26 223.89L18.93 223.1L17.64 222.26L16.38 221.37L15.15 220.44L13.97 219.46L12.82 218.44L11.72 217.38L10.65 216.27L9.63 215.12L8.65 213.94L7.72 212.71L6.83 211.46L5.99 210.16L5.2 208.83L4.46 207.47L3.78 206.08L3.14 204.66L2.56 203.21L2.04 201.73L1.57 200.23L1.16 198.7L0.81 197.15L0.52 195.58L0.3 193.99L0.13 192.37L0.03 190.74L0 189.09L0 109.09L0.03 107.44L0.13 105.81L0.3 104.2L0.52 102.6L0.81 101.03L1.16 99.48L1.57 97.95L2.04 96.45L2.56 94.97L3.14 93.52L3.78 92.1L4.46 90.71L5.2 89.35L5.99 88.02L6.83 86.73L7.72 85.47L8.65 84.24L9.63 83.06L10.65 81.91L11.72 80.81L12.82 79.74L13.97 78.72L15.15 77.74L16.38 76.81L17.64 75.92L18.93 75.08L20.26 74.29L21.62 73.56L23.01 72.87L24.43 72.23L25.88 71.65L27.36 71.13L28.86 70.66L30.39 70.25L31.94 69.9L33.51 69.61L35.11 69.39L36.72 69.22L38.35 69.12L40 69.09L600 69.09L601.65 69.12L603.28 69.22ZM457.34 119.21L456.04 119.35L454.75 119.55L453.48 119.8L452.23 120.11L451 120.46L449.8 120.87L448.61 121.33L447.46 121.83L446.32 122.38L445.22 122.98L444.14 123.62L443.1 124.3L442.08 125.03L441.1 125.79L440.15 126.6L439.23 127.44L438.35 128.32L437.51 129.24L436.7 130.19L435.94 131.17L435.21 132.19L434.53 133.23L433.89 134.31L433.29 135.42L432.74 136.55L432.24 137.71L431.78 138.89L431.37 140.09L431.02 141.32L430.71 142.57L430.46 143.84L430.26 145.13L430.12 146.43L430.03 147.75L430 149.09L430.03 150.43L430.12 151.75L430.26 153.05L430.46 154.34L430.71 155.61L431.02 156.86L431.37 158.09L431.78 159.29L432.24 160.48L432.74 161.63L433.29 162.77L433.89 163.87L434.53 164.95L435.21 165.99L435.94 167.01L436.7 167.99L437.51 168.94L438.35 169.86L439.23 170.74L440.15 171.58L441.1 172.39L442.08 173.15L443.1 173.88L444.14 174.56L445.22 175.2L446.32 175.8L447.46 176.35L448.61 176.85L449.8 177.31L451 177.72L452.23 178.08L453.48 178.38L454.75 178.63L456.04 178.83L457.34 178.97L458.66 179.06L460 179.09L461.34 179.06L462.66 178.97L463.96 178.83L465.25 178.63L466.52 178.38L467.77 178.08L469 177.72L470.2 177.31L471.39 176.85L472.54 176.35L473.68 175.8L474.78 175.2L475.86 174.56L476.9 173.88L477.92 173.15L478.9 172.39L479.85 171.58L480.77 170.74L481.65 169.86L482.49 168.94L483.3 167.99L484.06 167.01L484.79 165.99L485.47 164.95L486.11 163.87L486.71 162.77L487.26 161.63L487.76 160.48L488.22 159.29L488.63 158.09L488.98 156.86L489.29 155.61L489.54 154.34L489.74 153.05L489.88 151.75L489.97 150.43L490 149.09L489.97 147.75L489.88 146.43L489.74 145.13L489.54 143.84L489.29 142.57L488.98 141.32L488.63 140.09L488.22 138.89L487.76 137.71L487.26 136.55L486.71 135.42L486.11 134.31L485.47 133.23L484.79 132.19L484.06 131.17L483.3 130.19L482.49 129.24L481.65 128.32L480.77 127.44L479.85 126.6L478.9 125.79L477.92 125.03L476.9 124.3L475.86 123.62L474.78 122.98L473.68 122.38L472.54 121.83L471.39 121.33L470.2 120.87L469 120.46L467.77 120.11L466.52 119.8L465.25 119.55L463.96 119.35L462.66 119.21L461.34 119.12L460 119.09L458.66 119.12L457.34 119.21ZM537.34 119.21L536.04 119.35L534.75 119.55L533.48 119.8L532.23 120.11L531 120.46L529.8 120.87L528.61 121.33L527.46 121.83L526.32 122.38L525.22 122.98L524.14 123.62L523.1 124.3L522.08 125.03L521.1 125.79L520.15 126.6L519.23 127.44L518.35 128.32L517.51 129.24L516.7 130.19L515.94 131.17L515.21 132.19L514.53 133.23L513.89 134.31L513.29 135.42L512.74 136.55L512.24 137.71L511.78 138.89L511.37 140.09L511.02 141.32L510.71 142.57L510.46 143.84L510.26 145.13L510.12 146.43L510.03 147.75L510 149.09L510.03 150.43L510.12 151.75L510.26 153.05L510.46 154.34L510.71 155.61L511.02 156.86L511.37 158.09L511.78 159.29L512.24 160.48L512.74 161.63L513.29 162.77L513.89 163.87L514.53 164.95L515.21 165.99L515.94 167.01L516.7 167.99L517.51 168.94L518.35 169.86L519.23 170.74L520.15 171.58L521.1 172.39L522.08 173.15L523.1 173.88L524.14 174.56L525.22 175.2L526.32 175.8L527.46 176.35L528.61 176.85L529.8 177.31L531 177.72L532.23 178.08L533.48 178.38L534.75 178.63L536.04 178.83L537.34 178.97L538.66 179.06L540 179.09L541.34 179.06L542.66 178.97L543.96 178.83L545.25 178.63L546.52 178.38L547.77 178.08L549 177.72L550.2 177.31L551.39 176.85L552.54 176.35L553.68 175.8L554.78 175.2L555.86 174.56L556.9 173.88L557.92 173.15L558.9 172.39L559.85 171.58L560.77 170.74L561.65 169.86L562.49 168.94L563.3 167.99L564.06 167.01L564.79 165.99L565.47 164.95L566.11 163.87L566.71 162.77L567.26 161.63L567.76 160.48L568.22 159.29L568.63 158.09L568.98 156.86L569.29 155.61L569.54 154.34L569.74 153.05L569.88 151.75L569.97 150.43L570 149.09L569.97 147.75L569.88 146.43L569.74 145.13L569.54 143.84L569.29 142.57L568.98 141.32L568.63 140.09L568.22 138.89L567.76 137.71L567.26 136.55L566.71 135.42L566.11 134.31L565.47 133.23L564.79 132.19L564.06 131.17L563.3 130.19L562.49 129.24L561.65 128.32L560.77 127.44L559.85 126.6L558.9 125.79L557.92 125.03L556.9 124.3L555.86 123.62L554.78 122.98L553.68 122.38L552.54 121.83L551.39 121.33L550.2 120.87L549 120.46L547.77 120.11L546.52 119.8L545.25 119.55L543.96 119.35L542.66 119.21L541.34 119.12L540 119.09L538.66 119.12L537.34 119.21Z" id="d1GdKiu5PM"></path><path d="M603.28 240.13L604.89 240.3L606.49 240.52L608.06 240.81L609.61 241.16L611.14 241.57L612.64 242.04L614.12 242.56L615.57 243.14L616.99 243.78L618.38 244.46L619.74 245.2L621.07 245.99L622.36 246.83L623.62 247.72L624.85 248.65L626.03 249.63L627.18 250.65L628.28 251.72L629.35 252.82L630.37 253.97L631.35 255.15L632.28 256.38L633.17 257.64L634.01 258.93L634.8 260.26L635.54 261.62L636.22 263.01L636.86 264.43L637.44 265.88L637.96 267.36L638.43 268.86L638.84 270.39L639.19 271.94L639.48 273.51L639.7 275.11L639.87 276.72L639.97 278.35L640 280L640 360L639.97 361.65L639.87 363.28L639.7 364.89L639.48 366.49L639.19 368.06L638.84 369.61L638.43 371.14L637.96 372.64L637.44 374.12L636.86 375.57L636.22 376.99L635.54 378.38L634.8 379.74L634.01 381.07L633.17 382.36L632.28 383.62L631.35 384.85L630.37 386.03L629.35 387.18L628.28 388.28L627.18 389.35L626.03 390.37L624.85 391.35L623.62 392.28L622.36 393.17L621.07 394.01L619.74 394.8L618.38 395.54L616.99 396.22L615.57 396.86L614.12 397.44L612.64 397.96L611.14 398.43L609.61 398.84L608.06 399.19L606.49 399.48L604.89 399.7L603.28 399.87L601.65 399.97L600 400L40 400L38.35 399.97L36.72 399.87L35.11 399.7L33.51 399.48L31.94 399.19L30.39 398.84L28.86 398.43L27.36 397.96L25.88 397.44L24.43 396.86L23.01 396.22L21.62 395.54L20.26 394.8L18.93 394.01L17.64 393.17L16.38 392.28L15.15 391.35L13.97 390.37L12.82 389.35L11.72 388.28L10.65 387.18L9.63 386.03L8.65 384.85L7.72 383.62L6.83 382.36L5.99 381.07L5.2 379.74L4.46 378.38L3.78 376.99L3.14 375.57L2.56 374.12L2.04 372.64L1.57 371.14L1.16 369.61L0.81 368.06L0.52 366.49L0.3 364.89L0.13 363.28L0.03 361.65L0 360L0 280L0.03 278.35L0.13 276.72L0.3 275.11L0.52 273.51L0.81 271.94L1.16 270.39L1.57 268.86L2.04 267.36L2.56 265.88L3.14 264.43L3.78 263.01L4.46 261.62L5.2 260.26L5.99 258.93L6.83 257.64L7.72 256.38L8.65 255.15L9.63 253.97L10.65 252.82L11.72 251.72L12.82 250.65L13.97 249.63L15.15 248.65L16.38 247.72L17.64 246.83L18.93 245.99L20.26 245.2L21.62 244.46L23.01 243.78L24.43 243.14L25.88 242.56L27.36 242.04L28.86 241.57L30.39 241.16L31.94 240.81L33.51 240.52L35.11 240.3L36.72 240.13L38.35 240.03L40 240L600 240L601.65 240.03L603.28 240.13ZM457.34 290.12L456.04 290.26L454.75 290.46L453.48 290.71L452.23 291.02L451 291.37L449.8 291.78L448.61 292.24L447.46 292.74L446.32 293.29L445.22 293.89L444.14 294.53L443.1 295.21L442.08 295.94L441.1 296.7L440.15 297.51L439.23 298.35L438.35 299.23L437.51 300.15L436.7 301.1L435.94 302.08L435.21 303.1L434.53 304.14L433.89 305.22L433.29 306.32L432.74 307.46L432.24 308.61L431.78 309.8L431.37 311L431.02 312.23L430.71 313.48L430.46 314.75L430.26 316.04L430.12 317.34L430.03 318.66L430 320L430.03 321.34L430.12 322.66L430.26 323.96L430.46 325.25L430.71 326.52L431.02 327.77L431.37 329L431.78 330.2L432.24 331.39L432.74 332.54L433.29 333.68L433.89 334.78L434.53 335.86L435.21 336.9L435.94 337.92L436.7 338.9L437.51 339.85L438.35 340.77L439.23 341.65L440.15 342.49L441.1 343.3L442.08 344.06L443.1 344.79L444.14 345.47L445.22 346.11L446.32 346.71L447.46 347.26L448.61 347.76L449.8 348.22L451 348.63L452.23 348.98L453.48 349.29L454.75 349.54L456.04 349.74L457.34 349.88L458.66 349.97L460 350L461.34 349.97L462.66 349.88L463.96 349.74L465.25 349.54L466.52 349.29L467.77 348.98L469 348.63L470.2 348.22L471.39 347.76L472.54 347.26L473.68 346.71L474.78 346.11L475.86 345.47L476.9 344.79L477.92 344.06L478.9 343.3L479.85 342.49L480.77 341.65L481.65 340.77L482.49 339.85L483.3 338.9L484.06 337.92L484.79 336.9L485.47 335.86L486.11 334.78L486.71 333.68L487.26 332.54L487.76 331.39L488.22 330.2L488.63 329L488.98 327.77L489.29 326.52L489.54 325.25L489.74 323.96L489.88 322.66L489.97 321.34L490 320L489.97 318.66L489.88 317.34L489.74 316.04L489.54 314.75L489.29 313.48L488.98 312.23L488.63 311L488.22 309.8L487.76 308.61L487.26 307.46L486.71 306.32L486.11 305.22L485.47 304.14L484.79 303.1L484.06 302.08L483.3 301.1L482.49 300.15L481.65 299.23L480.77 298.35L479.85 297.51L478.9 296.7L477.92 295.94L476.9 295.21L475.86 294.53L474.78 293.89L473.68 293.29L472.54 292.74L471.39 292.24L470.2 291.78L469 291.37L467.77 291.02L466.52 290.71L465.25 290.46L463.96 290.26L462.66 290.12L461.34 290.03L460 290L458.66 290.03L457.34 290.12ZM537.34 290.12L536.04 290.26L534.75 290.46L533.48 290.71L532.23 291.02L531 291.37L529.8 291.78L528.61 292.24L527.46 292.74L526.32 293.29L525.22 293.89L524.14 294.53L523.1 295.21L522.08 295.94L521.1 296.7L520.15 297.51L519.23 298.35L518.35 299.23L517.51 300.15L516.7 301.1L515.94 302.08L515.21 303.1L514.53 304.14L513.89 305.22L513.29 306.32L512.74 307.46L512.24 308.61L511.78 309.8L511.37 311L511.02 312.23L510.71 313.48L510.46 314.75L510.26 316.04L510.12 317.34L510.03 318.66L510 320L510.03 321.34L510.12 322.66L510.26 323.96L510.46 325.25L510.71 326.52L511.02 327.77L511.37 329L511.78 330.2L512.24 331.39L512.74 332.54L513.29 333.68L513.89 334.78L514.53 335.86L515.21 336.9L515.94 337.92L516.7 338.9L517.51 339.85L518.35 340.77L519.23 341.65L520.15 342.49L521.1 343.3L522.08 344.06L523.1 344.79L524.14 345.47L525.22 346.11L526.32 346.71L527.46 347.26L528.61 347.76L529.8 348.22L531 348.63L532.23 348.98L533.48 349.29L534.75 349.54L536.04 349.74L537.34 349.88L538.66 349.97L540 350L541.34 349.97L542.66 349.88L543.96 349.74L545.25 349.54L546.52 349.29L547.77 348.98L549 348.63L550.2 348.22L551.39 347.76L552.54 347.26L553.68 346.71L554.78 346.11L555.86 345.47L556.9 344.79L557.92 344.06L558.9 343.3L559.85 342.49L560.77 341.65L561.65 340.77L562.49 339.85L563.3 338.9L564.06 337.92L564.79 336.9L565.47 335.86L566.11 334.78L566.71 333.68L567.26 332.54L567.76 331.39L568.22 330.2L568.63 329L568.98 327.77L569.29 326.52L569.54 325.25L569.74 323.96L569.88 322.66L569.97 321.34L570 320L569.97 318.66L569.88 317.34L569.74 316.04L569.54 314.75L569.29 313.48L568.98 312.23L568.63 311L568.22 309.8L567.76 308.61L567.26 307.46L566.71 306.32L566.11 305.22L565.47 304.14L564.79 303.1L564.06 302.08L563.3 301.1L562.49 300.15L561.65 299.23L560.77 298.35L559.85 297.51L558.9 296.7L557.92 295.94L556.9 295.21L555.86 294.53L554.78 293.89L553.68 293.29L552.54 292.74L551.39 292.24L550.2 291.78L549 291.37L547.77 291.02L546.52 290.71L545.25 290.46L543.96 290.26L542.66 290.12L541.34 290.03L540 290L538.66 290.03L537.34 290.12Z" id="b6vBX4Rra6"></path><path d="M603.28 409.22L604.89 409.39L606.49 409.61L608.06 409.9L609.61 410.25L611.14 410.66L612.64 411.13L614.12 411.65L615.57 412.23L616.99 412.87L618.38 413.56L619.74 414.29L621.07 415.08L622.36 415.92L623.62 416.81L624.85 417.74L626.03 418.72L627.18 419.74L628.28 420.81L629.35 421.91L630.37 423.06L631.35 424.24L632.28 425.47L633.17 426.73L634.01 428.02L634.8 429.35L635.54 430.71L636.22 432.1L636.86 433.52L637.44 434.97L637.96 436.45L638.43 437.95L638.84 439.48L639.19 441.03L639.48 442.6L639.7 444.2L639.87 445.81L639.97 447.44L640 449.09L640 529.09L639.97 530.74L639.87 532.37L639.7 533.99L639.48 535.58L639.19 537.15L638.84 538.7L638.43 540.23L637.96 541.73L637.44 543.21L636.86 544.66L636.22 546.08L635.54 547.47L634.8 548.83L634.01 550.16L633.17 551.46L632.28 552.71L631.35 553.94L630.37 555.12L629.35 556.27L628.28 557.38L627.18 558.44L626.03 559.46L624.85 560.44L623.62 561.37L622.36 562.26L621.07 563.1L619.74 563.89L618.38 564.63L616.99 565.31L615.57 565.95L614.12 566.53L612.64 567.05L611.14 567.52L609.61 567.93L608.06 568.28L606.49 568.57L604.89 568.79L603.28 568.96L601.65 569.06L600 569.09L40 569.09L38.35 569.06L36.72 568.96L35.11 568.79L33.51 568.57L31.94 568.28L30.39 567.93L28.86 567.52L27.36 567.05L25.88 566.53L24.43 565.95L23.01 565.31L21.62 564.63L20.26 563.89L18.93 563.1L17.64 562.26L16.38 561.37L15.15 560.44L13.97 559.46L12.82 558.44L11.72 557.38L10.65 556.27L9.63 555.12L8.65 553.94L7.72 552.71L6.83 551.46L5.99 550.16L5.2 548.83L4.46 547.47L3.78 546.08L3.14 544.66L2.56 543.21L2.04 541.73L1.57 540.23L1.16 538.7L0.81 537.15L0.52 535.58L0.3 533.99L0.13 532.37L0.03 530.74L0 529.09L0 449.09L0.03 447.44L0.13 445.81L0.3 444.2L0.52 442.6L0.81 441.03L1.16 439.48L1.57 437.95L2.04 436.45L2.56 434.97L3.14 433.52L3.78 432.1L4.46 430.71L5.2 429.35L5.99 428.02L6.83 426.73L7.72 425.47L8.65 424.24L9.63 423.06L10.65 421.91L11.72 420.81L12.82 419.74L13.97 418.72L15.15 417.74L16.38 416.81L17.64 415.92L18.93 415.08L20.26 414.29L21.62 413.56L23.01 412.87L24.43 412.23L25.88 411.65L27.36 411.13L28.86 410.66L30.39 410.25L31.94 409.9L33.51 409.61L35.11 409.39L36.72 409.22L38.35 409.12L40 409.09L600 409.09L601.65 409.12L603.28 409.22ZM457.34 459.21L456.04 459.35L454.75 459.55L453.48 459.8L452.23 460.11L451 460.46L449.8 460.87L448.61 461.33L447.46 461.83L446.32 462.38L445.22 462.98L444.14 463.62L443.1 464.3L442.08 465.03L441.1 465.79L440.15 466.6L439.23 467.44L438.35 468.32L437.51 469.24L436.7 470.19L435.94 471.17L435.21 472.19L434.53 473.23L433.89 474.31L433.29 475.42L432.74 476.55L432.24 477.71L431.78 478.89L431.37 480.09L431.02 481.32L430.71 482.57L430.46 483.84L430.26 485.13L430.12 486.43L430.03 487.75L430 489.09L430.03 490.43L430.12 491.75L430.26 493.05L430.46 494.34L430.71 495.61L431.02 496.86L431.37 498.09L431.78 499.29L432.24 500.48L432.74 501.63L433.29 502.77L433.89 503.87L434.53 504.95L435.21 505.99L435.94 507.01L436.7 507.99L437.51 508.94L438.35 509.86L439.23 510.74L440.15 511.58L441.1 512.39L442.08 513.15L443.1 513.88L444.14 514.56L445.22 515.2L446.32 515.8L447.46 516.35L448.61 516.85L449.8 517.31L451 517.72L452.23 518.08L453.48 518.38L454.75 518.63L456.04 518.83L457.34 518.97L458.66 519.06L460 519.09L461.34 519.06L462.66 518.97L463.96 518.83L465.25 518.63L466.52 518.38L467.77 518.08L469 517.72L470.2 517.31L471.39 516.85L472.54 516.35L473.68 515.8L474.78 515.2L475.86 514.56L476.9 513.88L477.92 513.15L478.9 512.39L479.85 511.58L480.77 510.74L481.65 509.86L482.49 508.94L483.3 507.99L484.06 507.01L484.79 505.99L485.47 504.95L486.11 503.87L486.71 502.77L487.26 501.63L487.76 500.48L488.22 499.29L488.63 498.09L488.98 496.86L489.29 495.61L489.54 494.34L489.74 493.05L489.88 491.75L489.97 490.43L490 489.09L489.97 487.75L489.88 486.43L489.74 485.13L489.54 483.84L489.29 482.57L488.98 481.32L488.63 480.09L488.22 478.89L487.76 477.71L487.26 476.55L486.71 475.42L486.11 474.31L485.47 473.23L484.79 472.19L484.06 471.17L483.3 470.19L482.49 469.24L481.65 468.32L480.77 467.44L479.85 466.6L478.9 465.79L477.92 465.03L476.9 464.3L475.86 463.62L474.78 462.98L473.68 462.38L472.54 461.83L471.39 461.33L470.2 460.87L469 460.46L467.77 460.11L466.52 459.8L465.25 459.55L463.96 459.35L462.66 459.21L461.34 459.12L460 459.09L458.66 459.12L457.34 459.21ZM537.34 459.21L536.04 459.35L534.75 459.55L533.48 459.8L532.23 460.11L531 460.46L529.8 460.87L528.61 461.33L527.46 461.83L526.32 462.38L525.22 462.98L524.14 463.62L523.1 464.3L522.08 465.03L521.1 465.79L520.15 466.6L519.23 467.44L518.35 468.32L517.51 469.24L516.7 470.19L515.94 471.17L515.21 472.19L514.53 473.23L513.89 474.31L513.29 475.42L512.74 476.55L512.24 477.71L511.78 478.89L511.37 480.09L511.02 481.32L510.71 482.57L510.46 483.84L510.26 485.13L510.12 486.43L510.03 487.75L510 489.09L510.03 490.43L510.12 491.75L510.26 493.05L510.46 494.34L510.71 495.61L511.02 496.86L511.37 498.09L511.78 499.29L512.24 500.48L512.74 501.63L513.29 502.77L513.89 503.87L514.53 504.95L515.21 505.99L515.94 507.01L516.7 507.99L517.51 508.94L518.35 509.86L519.23 510.74L520.15 511.58L521.1 512.39L522.08 513.15L523.1 513.88L524.14 514.56L525.22 515.2L526.32 515.8L527.46 516.35L528.61 516.85L529.8 517.31L531 517.72L532.23 518.08L533.48 518.38L534.75 518.63L536.04 518.83L537.34 518.97L538.66 519.06L540 519.09L541.34 519.06L542.66 518.97L543.96 518.83L545.25 518.63L546.52 518.38L547.77 518.08L549 517.72L550.2 517.31L551.39 516.85L552.54 516.35L553.68 515.8L554.78 515.2L555.86 514.56L556.9 513.88L557.92 513.15L558.9 512.39L559.85 511.58L560.77 510.74L561.65 509.86L562.49 508.94L563.3 507.99L564.06 507.01L564.79 505.99L565.47 504.95L566.11 503.87L566.71 502.77L567.26 501.63L567.76 500.48L568.22 499.29L568.63 498.09L568.98 496.86L569.29 495.61L569.54 494.34L569.74 493.05L569.88 491.75L569.97 490.43L570 489.09L569.97 487.75L569.88 486.43L569.74 485.13L569.54 483.84L569.29 482.57L568.98 481.32L568.63 480.09L568.22 478.89L567.76 477.71L567.26 476.55L566.71 475.42L566.11 474.31L565.47 473.23L564.79 472.19L564.06 471.17L563.3 470.19L562.49 469.24L561.65 468.32L560.77 467.44L559.85 466.6L558.9 465.79L557.92 465.03L556.9 464.3L555.86 463.62L554.78 462.98L553.68 462.38L552.54 461.83L551.39 461.33L550.2 460.87L549 460.46L547.77 460.11L546.52 459.8L545.25 459.55L543.96 459.35L542.66 459.21L541.34 459.12L540 459.09L538.66 459.12L537.34 459.21Z" id="b1k3iJFGnn"></path></defs><g><g><g><use xlink:href="#i1FUmF1eEI" opacity="1" fill="#2d2d30" fill-opacity="1"></use><g><use xlink:href="#i1FUmF1eEI" opacity="1" fill-opacity="0" stroke="#000000" stroke-width="1" stroke-opacity="0"></use></g></g><g><use xlink:href="#d1GdKiu5PM" opacity="1" fill="#c5c5c5" fill-opacity="1"></use><g><use xlink:href="#d1GdKiu5PM" opacity="1" fill-opacity="0" stroke="#000000" stroke-width="1" stroke-opacity="0"></use></g></g><g><use xlink:href="#b6vBX4Rra6" opacity="1" fill="#c5c5c5" fill-opacity="1"></use><g><use xlink:href="#b6vBX4Rra6" opacity="1" fill-opacity="0" stroke="#000000" stroke-width="1" stroke-opacity="0"></use></g></g><g><use xlink:href="#b1k3iJFGnn" opacity="1" fill="#c5c5c5" fill-opacity="1"></use><g><use xlink:href="#b1k3iJFGnn" opacity="1" fill-opacity="0" stroke="#000000" stroke-width="1" stroke-opacity="0"></use></g></g></g></g></svg>