<?xml version="1.0" encoding="UTF-8" standalone="no"?>
<!DOCTYPE svg PUBLIC "-//W3C//DTD SVG 1.1//EN" "http://www.w3.org/Graphics/SVG/1.1/DTD/svg11.dtd">
<svg version="1.1" xmlns="http://www.w3.org/2000/svg" xmlns:xlink="http://www.w3.org/1999/xlink" preserveAspectRatio="xMidYMid meet" viewBox="-0.5565796810854653 -0.7944712613565075 31.9934306178293 31.10342980242362" width="27.99" height="27.1"><defs><path d="M16.11 0.47L17.21 0.75L18.3 1.13L19.36 1.61L20.39 2.19L21.37 2.87L22.26 3.62L23.08 4.43L23.81 5.3L24.45 6.23L25.01 7.2L25.49 8.21L25.87 9.25L26.16 10.32L26.37 11.42L26.47 12.52L26.49 13.64L26.41 14.76L26.23 15.87L25.95 16.97L25.57 18.06L25.08 19.12L24.5 20.16L28.13 23.2L28.16 23.23L28.17 23.24L28.18 23.24L28.18 23.25L28.18 23.25L28.19 23.25L28.19 23.26L28.2 23.27L28.25 23.31L28.29 23.36L28.33 23.42L28.36 23.47L28.38 23.53L28.41 23.59L28.42 23.65L28.43 23.71L28.44 23.77L28.44 23.83L28.43 23.9L28.42 23.96L28.4 24.02L28.38 24.08L28.36 24.13L28.33 24.19L28.29 24.24L28.25 24.29L25.93 27.03L25.92 27.04L25.91 27.05L25.91 27.05L25.91 27.06L25.9 27.06L25.9 27.07L25.89 27.07L25.84 27.12L25.79 27.16L25.74 27.2L25.68 27.23L25.63 27.26L25.57 27.28L25.51 27.29L25.45 27.3L25.39 27.31L25.32 27.31L25.26 27.3L25.2 27.29L25.14 27.28L25.08 27.26L25.02 27.23L24.97 27.2L24.91 27.16L24.86 27.12L20.98 23.87L20.25 24.35L19.5 24.78L18.73 25.15L17.94 25.47L17.13 25.73L16.32 25.94L15.49 26.1L14.66 26.2L13.82 26.25L12.98 26.25L12.14 26.19L11.31 26.08L10.48 25.91L9.66 25.69L8.86 25.42L8.07 25.09L7.29 24.7L6.54 24.26L5.56 23.59L4.67 22.84L3.85 22.03L3.12 21.16L2.48 20.23L1.92 19.26L1.44 18.25L1.06 17.21L0.77 16.13L0.57 15.04L0.46 13.93L0.44 12.82L0.53 11.7L0.71 10.59L0.99 9.48L1.37 8.4L1.85 7.34L2.43 6.3L3.11 5.33L3.86 4.43L4.67 3.62L5.54 2.89L6.46 2.24L7.43 1.68L8.44 1.21L9.49 0.82L10.56 0.53L11.65 0.33L12.76 0.22L13.88 0.21L14.99 0.29L16.11 0.47ZM10.96 5.63L9.81 6.12L8.76 6.77L7.83 7.57L7.03 8.5L6.38 9.55L5.9 10.69L5.59 11.93L5.49 13.22L5.59 14.52L5.9 15.75L6.38 16.9L7.03 17.94L7.83 18.88L8.76 19.68L9.81 20.33L10.96 20.81L12.19 21.11L13.49 21.22L14.78 21.11L16.01 20.81L17.16 20.33L18.21 19.68L19.14 18.88L19.94 17.94L20.59 16.9L21.07 15.75L21.38 14.52L21.48 13.22L21.38 11.93L21.07 10.69L20.59 9.55L19.94 8.5L19.14 7.57L18.21 6.77L17.16 6.12L16.01 5.63L14.78 5.33L13.49 5.23L12.19 5.33L10.96 5.63Z" id="dnLh7KvSv"></path><path d="M13.46 8.11C16.28 8.11 18.57 10.4 18.57 13.22C18.57 16.04 16.3 18.32 13.49 18.34C10.66 18.35 8.36 16.08 8.34 13.25C8.34 13.24 8.34 13.23 8.34 13.22C8.34 10.4 10.63 8.11 13.46 8.11Z" id="d1MDuApsnV"></path></defs><g><g><use xlink:href="#dnLh7KvSv" opacity="1" fill="#6ab345" fill-opacity="1"></use><g><use xlink:href="#dnLh7KvSv" opacity="1" fill-opacity="0" stroke="#000000" stroke-width="1" stroke-opacity="0"></use></g></g><g><use xlink:href="#d1MDuApsnV" opacity="1" fill="#606163" fill-opacity="1"></use><g><use xlink:href="#d1MDuApsnV" opacity="1" fill-opacity="0" stroke="#000000" stroke-width="1" stroke-opacity="0"></use></g></g></g></svg>